<svg width="41" height="33" viewBox="0 0 41 33" fill="none" xmlns="http://www.w3.org/2000/svg">
<g id="Component 19">
<path id="Union" fill-rule="evenodd" clip-rule="evenodd" d="M2.90039 0C1.79582 0 0.900391 0.895432 0.900391 2V24.3969C0.900391 25.5015 1.79582 26.3969 2.90039 26.3969H31.7001L38.4658 31.9435C39.1185 32.4787 40.0997 32.0143 40.0998 31.1702L40.1001 24.4331C40.1003 24.4211 40.1004 24.409 40.1004 24.3969V2C40.1004 0.895431 39.205 0 38.1004 0H2.90039Z" fill="#6E6E82"/>
<path id="Ellipse 25 (Stroke)" fill-rule="evenodd" clip-rule="evenodd" d="M8.73955 11.4785C9.29183 11.4785 9.73955 11.9262 9.73955 12.4785V13.0279C9.73955 14.2447 10.5897 15.6328 12.5789 16.8023C14.5304 17.9496 17.3276 18.709 20.5003 18.709C23.6731 18.709 26.4703 17.9496 28.4218 16.8023C30.411 15.6328 31.2611 14.2447 31.2611 13.0279V12.4785C31.2611 11.9262 31.7088 11.4785 32.2611 11.4785H33.3356C33.8879 11.4785 34.3356 11.9262 34.3356 12.4785V13.0279C34.3356 15.8044 32.4327 18.0316 29.9709 19.4789C27.4714 20.9485 24.1196 21.8078 20.5003 21.8078C16.8811 21.8078 13.5293 20.9485 11.0297 19.4789C8.56792 18.0316 6.66504 15.8044 6.66504 13.0279V12.4785C6.66504 11.9262 7.11275 11.4785 7.66504 11.4785H8.73955Z" fill="#1C1C22"/>
</g>
</svg>
