<svg width="166" height="28" viewBox="0 0 166 28" fill="none" xmlns="http://www.w3.org/2000/svg">
<path d="M45.5999 20.084C45.4894 20.084 45.3999 19.9945 45.3999 19.884V4.81936C45.3999 4.7089 45.4894 4.61936 45.5999 4.61936H47.6405C47.7109 4.61936 47.7762 4.65642 47.8123 4.71692L54.3062 15.6061C54.3857 15.7395 54.2896 15.9086 54.1344 15.9086H53.6037C53.4491 15.9086 53.3529 15.7407 53.4311 15.6074L59.819 4.71816C59.8549 4.65696 59.9205 4.61936 59.9915 4.61936H62.0314C62.1417 4.61936 62.2312 4.70873 62.2314 4.81908L62.2528 19.8838C62.253 19.9943 62.1634 20.084 62.0528 20.084H59.7465C59.6362 20.084 59.5467 19.9947 59.5465 19.8844L59.5253 9.08359C59.5251 8.97298 59.6147 8.8832 59.7253 8.8832H59.7446C59.8999 8.8832 59.9959 9.05241 59.9163 9.18572L54.5227 18.2192C54.4867 18.2796 54.4214 18.3166 54.351 18.3166H53.3011C53.2312 18.3166 53.1663 18.2801 53.1301 18.2204L47.6522 9.1869C47.5714 9.05361 47.6673 8.8832 47.8232 8.8832H47.9281C48.0386 8.8832 48.1281 8.97274 48.1281 9.0832V19.884C48.1281 19.9945 48.0386 20.084 47.9281 20.084H45.5999Z" fill="#F1F1F5"/>
<path d="M73.4096 20.305C72.2069 20.305 71.0994 20.1061 70.0874 19.7085C69.0753 19.3108 68.1952 18.7585 67.4472 18.0515C66.6991 17.3299 66.1198 16.4903 65.7091 15.533C65.2984 14.5609 65.093 13.5005 65.093 12.3517C65.093 11.2029 65.2984 10.1498 65.7091 9.19249C66.1198 8.22042 66.6991 7.38091 67.4472 6.67395C68.1952 5.95227 69.0753 5.3926 70.0874 4.99493C71.0994 4.59727 72.1995 4.39844 73.3876 4.39844C74.5904 4.39844 75.6904 4.59727 76.6878 4.99493C77.6999 5.3926 78.58 5.95227 79.328 6.67395C80.0761 7.38091 80.6555 8.22042 81.0662 9.19249C81.4769 10.1498 81.6822 11.2029 81.6822 12.3517C81.6822 13.5005 81.4769 14.5609 81.0662 15.533C80.6555 16.5051 80.0761 17.3446 79.328 18.0515C78.58 18.7585 77.6999 19.3108 76.6878 19.7085C75.6904 20.1061 74.5977 20.305 73.4096 20.305ZM73.3876 17.7864C74.165 17.7864 74.8837 17.6539 75.5438 17.3888C76.2038 17.1237 76.7759 16.7481 77.2599 16.2621C77.7439 15.7613 78.1179 15.1869 78.382 14.5388C78.6606 13.8761 78.8 13.147 78.8 12.3517C78.8 11.5564 78.6606 10.8347 78.382 10.1866C78.1179 9.52387 77.7439 8.94947 77.2599 8.46344C76.7759 7.96268 76.2038 7.57974 75.5438 7.31463C74.8837 7.04953 74.165 6.91697 73.3876 6.91697C72.6102 6.91697 71.8915 7.04953 71.2315 7.31463C70.5861 7.57974 70.014 7.96268 69.5153 8.46344C69.0313 8.94947 68.6499 9.52387 68.3713 10.1866C68.1072 10.8347 67.9752 11.5564 67.9752 12.3517C67.9752 13.1323 68.1072 13.854 68.3713 14.5168C68.6499 15.1795 69.0313 15.7613 69.5153 16.2621C69.9994 16.7481 70.5714 17.1237 71.2315 17.3888C71.8915 17.6539 72.6102 17.7864 73.3876 17.7864Z" fill="#F1F1F5"/>
<path d="M91.6884 20.305C90.4857 20.305 89.3783 20.1135 88.3662 19.7306C87.3688 19.3329 86.4961 18.7806 85.748 18.0736C85 17.3519 84.4206 16.5051 84.0099 15.533C83.5992 14.5609 83.3939 13.5005 83.3939 12.3517C83.3939 11.2029 83.5992 10.1425 84.0099 9.1704C84.4206 8.19833 85 7.35882 85.748 6.65186C86.5107 5.93018 87.3981 5.37787 88.4102 4.99493C89.4223 4.59727 90.5297 4.39844 91.7324 4.39844C93.0379 4.39844 94.2113 4.612 95.2527 5.03912C96.2479 5.44163 97.0934 6.02074 97.789 6.77643C97.8608 6.85436 97.8558 6.97487 97.7801 7.049L96.2525 8.54555C96.174 8.6224 96.0484 8.62135 95.9688 8.54574C95.407 8.01242 94.8016 7.61678 94.1526 7.35882C93.4632 7.06425 92.7005 6.91697 91.8645 6.91697C91.0577 6.91697 90.3097 7.04953 89.6203 7.31463C88.9309 7.57974 88.3369 7.95531 87.8382 8.44135C87.3395 8.92738 86.9508 9.50178 86.6721 10.1646C86.4081 10.8273 86.2761 11.5564 86.2761 12.3517C86.2761 13.1323 86.4081 13.854 86.6721 14.5168C86.9508 15.1795 87.3395 15.7613 87.8382 16.2621C88.3369 16.7481 88.9236 17.1237 89.5983 17.3888C90.273 17.6539 91.0211 17.7864 91.8425 17.7864C92.6052 17.7864 93.3386 17.6686 94.0426 17.433C94.7009 17.2036 95.3285 16.8384 95.9252 16.3372C96.0145 16.2622 96.149 16.2751 96.2195 16.3679L97.5991 18.1837C97.6647 18.27 97.6497 18.393 97.5636 18.4588C96.792 19.048 95.9043 19.5014 94.9007 19.8189C93.8446 20.143 92.7739 20.305 91.6884 20.305ZM95.1832 17.9871C95.0843 17.9734 95.0107 17.8888 95.0107 17.789V12.375C95.0107 12.2645 95.1002 12.175 95.2107 12.175H97.5169C97.6273 12.175 97.7169 12.2645 97.7169 12.375V18.1091C97.7169 18.2305 97.6096 18.3239 97.4894 18.3072L95.1832 17.9871Z" fill="#F1F1F5"/>
<path d="M99.3999 20.084C99.2549 20.084 99.1581 19.9346 99.2174 19.8022L105.969 4.73757C106.001 4.66565 106.072 4.61936 106.151 4.61936H108.708C108.787 4.61936 108.859 4.66555 108.891 4.73735L115.664 19.802C115.723 19.9344 115.626 20.084 115.481 20.084H112.93C112.85 20.084 112.778 20.0363 112.746 19.9627L106.955 6.42239C106.898 6.29043 106.995 6.14374 107.139 6.14374H107.677C107.821 6.14374 107.917 6.29021 107.861 6.42214L102.091 19.9624C102.06 20.0362 101.987 20.084 101.907 20.084H99.3999ZM102.561 16.5051C102.424 16.5051 102.327 16.3702 102.372 16.2404L103.005 14.387C103.033 14.306 103.109 14.2516 103.194 14.2516H111.225C111.311 14.2516 111.387 14.306 111.414 14.387L112.048 16.2404C112.092 16.3702 111.995 16.5051 111.858 16.5051H102.561Z" fill="#F1F1F5"/>
<path fill-rule="evenodd" clip-rule="evenodd" d="M2 0C0.895431 0 0 0.895428 0 2V21.0966C0 22.2012 0.895431 23.0966 2 23.0966H26.7159L32.3646 27.7679C33.0166 28.307 34.0019 27.8433 34.0019 26.9973L34.0022 21.1296C34.0023 21.1186 34.0024 21.1076 34.0024 21.0966V2C34.0024 0.895431 33.107 0 32.0024 0H2ZM6.66686 10.043C7.21914 10.043 7.66686 10.4907 7.66686 11.043V11.3986C7.66686 12.4633 8.40427 13.6778 10.1297 14.7011C11.8224 15.705 14.2488 16.3694 17.0009 16.3694C19.7529 16.3694 22.1793 15.705 23.872 14.7011C25.5974 13.6778 26.3349 12.4633 26.3349 11.3986V11.043C26.3349 10.4907 26.7826 10.043 27.3349 10.043H28.0017C28.554 10.043 29.0017 10.4907 29.0017 11.043V11.3986C29.0017 13.828 27.3511 15.7767 25.2157 17.0431C23.0476 18.329 20.1402 19.0808 17.0009 19.0808C13.8615 19.0808 10.9541 18.329 8.78597 17.0431C6.65058 15.7767 5 13.828 5 11.3986V11.043C5 10.4907 5.44772 10.043 6 10.043H6.66686Z" fill="url(#paint0_linear_149_5879)"/>
<path d="M118.23 20.084C118.12 20.084 118.03 19.9945 118.03 19.884V18.2332C118.03 18.1872 118.046 18.1425 118.075 18.1068L127.738 6.25758C127.839 6.13359 128.038 6.17262 128.084 6.32565L128.226 6.7912C128.265 6.91971 128.169 7.04953 128.035 7.04953H118.384C118.274 7.04953 118.184 6.95998 118.184 6.84953V4.81936C118.184 4.7089 118.274 4.61936 118.384 4.61936H130.679C130.79 4.61936 130.879 4.7089 130.879 4.81936V6.47019C130.879 6.51625 130.863 6.56089 130.834 6.59659L121.166 18.4522C121.066 18.5749 120.87 18.5382 120.821 18.3876L120.668 17.9157C120.626 17.7865 120.722 17.6539 120.858 17.6539H130.965C131.076 17.6539 131.165 17.7434 131.165 17.8539V19.884C131.165 19.9945 131.076 20.084 130.965 20.084H118.23Z" fill="url(#paint1_linear_149_5879)"/>
<path d="M140.61 20.305C139.407 20.305 138.3 20.1061 137.288 19.7085C136.276 19.3108 135.396 18.7585 134.647 18.0515C133.899 17.3299 133.32 16.4903 132.909 15.533C132.499 14.5609 132.293 13.5005 132.293 12.3517C132.293 11.2029 132.499 10.1498 132.909 9.19249C133.32 8.22042 133.899 7.38091 134.647 6.67395C135.396 5.95227 136.276 5.3926 137.288 4.99493C138.3 4.59727 139.4 4.39844 140.588 4.39844C141.791 4.39844 142.891 4.59727 143.888 4.99493C144.9 5.3926 145.78 5.95227 146.528 6.67395C147.276 7.38091 147.856 8.22042 148.266 9.19249C148.677 10.1498 148.882 11.2029 148.882 12.3517C148.882 13.5005 148.677 14.5609 148.266 15.533C147.856 16.5051 147.276 17.3446 146.528 18.0515C145.78 18.7585 144.9 19.3108 143.888 19.7085C142.891 20.1061 141.798 20.305 140.61 20.305ZM140.588 17.7864C141.365 17.7864 142.084 17.6539 142.744 17.3888C143.404 17.1237 143.976 16.7481 144.46 16.2621C144.944 15.7613 145.318 15.1869 145.582 14.5388C145.861 13.8761 146 13.147 146 12.3517C146 11.5564 145.861 10.8347 145.582 10.1866C145.318 9.52387 144.944 8.94947 144.46 8.46344C143.976 7.96268 143.404 7.57974 142.744 7.31463C142.084 7.04953 141.365 6.91697 140.588 6.91697C139.811 6.91697 139.092 7.04953 138.432 7.31463C137.786 7.57974 137.214 7.96268 136.716 8.46344C136.232 8.94947 135.85 9.52387 135.572 10.1866C135.308 10.8347 135.176 11.5564 135.176 12.3517C135.176 13.1323 135.308 13.854 135.572 14.5168C135.85 15.1795 136.232 15.7613 136.716 16.2621C137.2 16.7481 137.772 17.1237 138.432 17.3888C139.092 17.6539 139.811 17.7864 140.588 17.7864Z" fill="url(#paint2_linear_149_5879)"/>
<path d="M149.61 20.084C149.465 20.084 149.368 19.9346 149.427 19.8022L156.179 4.73757C156.211 4.66565 156.282 4.61936 156.361 4.61936H158.919C158.997 4.61936 159.069 4.66555 159.101 4.73735L165.874 19.802C165.933 19.9344 165.836 20.084 165.691 20.084H163.14C163.06 20.084 162.988 20.0363 162.956 19.9627L157.165 6.42239C157.108 6.29043 157.205 6.14374 157.349 6.14374H157.887C158.031 6.14374 158.127 6.29021 158.071 6.42214L152.301 19.9624C152.27 20.0362 152.197 20.084 152.117 20.084H149.61ZM152.771 16.5051C152.634 16.5051 152.538 16.3702 152.582 16.2404L153.215 14.387C153.243 14.306 153.319 14.2516 153.404 14.2516H161.435C161.521 14.2516 161.597 14.306 161.624 14.387L162.258 16.2404C162.302 16.3702 162.206 16.5051 162.068 16.5051H152.771Z" fill="url(#paint3_linear_149_5879)"/>
<defs>
<linearGradient id="paint0_linear_149_5879" x1="0" y1="0" x2="34.675" y2="0.859382" gradientUnits="userSpaceOnUse">
<stop stop-color="#5097FA"/>
<stop offset="1" stop-color="#5363FF"/>
</linearGradient>
<linearGradient id="paint1_linear_149_5879" x1="118.03" y1="4.39844" x2="166.795" y2="7.39969" gradientUnits="userSpaceOnUse">
<stop stop-color="#5097FA"/>
<stop offset="1" stop-color="#5363FF"/>
</linearGradient>
<linearGradient id="paint2_linear_149_5879" x1="118.03" y1="4.39844" x2="166.795" y2="7.39969" gradientUnits="userSpaceOnUse">
<stop stop-color="#5097FA"/>
<stop offset="1" stop-color="#5363FF"/>
</linearGradient>
<linearGradient id="paint3_linear_149_5879" x1="118.03" y1="4.39844" x2="166.795" y2="7.39969" gradientUnits="userSpaceOnUse">
<stop stop-color="#5097FA"/>
<stop offset="1" stop-color="#5363FF"/>
</linearGradient>
</defs>
</svg>
